<svg width="20" height="21" viewBox="0 0 20 21" fill="none" xmlns="http://www.w3.org/2000/svg">
<path d="M14.1925 10.9422L7.94254 17.1922C7.88447 17.2502 7.81553 17.2963 7.73966 17.3277C7.66379 17.3592 7.58247 17.3753 7.50035 17.3753C7.41823 17.3753 7.33691 17.3592 7.26104 17.3277C7.18517 17.2963 7.11623 17.2502 7.05816 17.1922C7.00009 17.1341 6.95403 17.0652 6.9226 16.9893C6.89117 16.9134 6.875 16.8321 6.875 16.75C6.875 16.6679 6.89117 16.5865 6.9226 16.5107C6.95403 16.4348 7.00009 16.3659 7.05816 16.3078L12.8668 10.5L7.05816 4.69217C6.94088 4.57489 6.875 4.41583 6.875 4.24998C6.875 4.08413 6.94088 3.92507 7.05816 3.80779C7.17544 3.69052 7.3345 3.62463 7.50035 3.62463C7.6662 3.62463 7.82526 3.69052 7.94254 3.80779L14.1925 10.0578C14.2506 10.1158 14.2967 10.1848 14.3282 10.2606C14.3597 10.3365 14.3758 10.4178 14.3758 10.5C14.3758 10.5821 14.3597 10.6634 14.3282 10.7393C14.2967 10.8152 14.2506 10.8841 14.1925 10.9422Z" fill="#101010"/>
</svg>
