<svg width="250" height="201" viewBox="0 0 250 201" fill="none" xmlns="http://www.w3.org/2000/svg">
<path d="M136 64.5C139.866 64.5 143 67.634 143 71.5C143 75.366 139.866 78.5 136 78.5H200C203.866 78.5 207 81.634 207 85.5C207 89.366 203.866 92.5 200 92.5H222C225.866 92.5 229 95.634 229 99.5C229 103.366 225.866 106.5 222 106.5H203C199.134 106.5 196 109.634 196 113.5C196 117.366 199.134 120.5 203 120.5H209C212.866 120.5 216 123.634 216 127.5C216 131.366 212.866 134.5 209 134.5H157C156.485 134.5 155.983 134.444 155.5 134.339C155.017 134.444 154.515 134.5 154 134.5H63C59.134 134.5 56 131.366 56 127.5C56 123.634 59.134 120.5 63 120.5H24C20.134 120.5 17 117.366 17 113.5C17 109.634 20.134 106.5 24 106.5H64C67.866 106.5 71 103.366 71 99.5C71 95.634 67.866 92.5 64 92.5H39C35.134 92.5 32 89.366 32 85.5C32 81.634 35.134 78.5 39 78.5H79C75.134 78.5 72 75.366 72 71.5C72 67.634 75.134 64.5 79 64.5H136ZM226 120.5C229.866 120.5 233 123.634 233 127.5C233 131.366 229.866 134.5 226 134.5C222.134 134.5 219 131.366 219 127.5C219 123.634 222.134 120.5 226 120.5Z" fill="#4E2727"/>
<path fill-rule="evenodd" clip-rule="evenodd" d="M92 140.5C79.8497 140.5 70 130.874 70 119C70 107.126 79.8497 97.5 92 97.5C92.5167 97.5 93.0292 97.5174 93.537 97.5517C93.1842 95.5878 93 93.5654 93 91.5C93 72.7223 108.222 57.5 127 57.5C141.991 57.5 154.716 67.202 159.239 80.6695C160.31 80.5575 161.398 80.5 162.5 80.5C179.345 80.5 193 93.9315 193 110.5C193 126.241 180.675 139.227 165 140.478V140.5H108.508H92ZM103.996 140.5H97.0314H103.996Z" fill="#242424"/>
<path d="M103.996 140.5H97.0314M92 140.5C79.8497 140.5 70 130.874 70 119C70 107.126 79.8497 97.5 92 97.5C92.5167 97.5 93.0292 97.5174 93.537 97.5517C93.1842 95.5878 93 93.5654 93 91.5C93 72.7223 108.222 57.5 127 57.5C141.991 57.5 154.716 67.202 159.239 80.6695C160.31 80.5575 161.398 80.5 162.5 80.5C179.345 80.5 193 93.9315 193 110.5C193 126.241 180.675 139.227 165 140.478V140.5H108.508H92Z" stroke="#FF8484" stroke-width="2.5" stroke-linecap="round"/>
<path fill-rule="evenodd" clip-rule="evenodd" d="M116.612 64.8426C116.612 97.0657 145.633 123.618 183 127.203C178.317 132.961 171.086 136.868 162.847 137.481V137.5H95.7431C87.6013 137.5 74 134.07 74 119.048C74 104.027 84.5742 100.597 95.7431 100.597C96.218 100.597 96.6891 100.612 97.1559 100.641C96.8316 98.9556 96.7746 97.2184 96.6623 95.4474C95.9038 83.4842 101.123 68.407 116.63 63.5C116.618 63.9473 116.612 64.3944 116.612 64.8426ZM127.116 115.258C124.078 115.258 121.614 117.692 121.614 120.695C121.614 123.698 124.078 126.132 127.116 126.132C130.155 126.132 132.618 123.698 132.618 120.695C132.618 117.692 130.155 115.258 127.116 115.258Z" fill="#4E2727"/>
<path d="M127.5 126.5C130.538 126.5 133 124.038 133 121C133 117.962 130.538 115.5 127.5 115.5C124.462 115.5 122 117.962 122 121C122 124.038 124.462 126.5 127.5 126.5Z" stroke="#FF8484" stroke-width="2.5"/>
<path d="M112 109.5L119 104.007L112 98.7776" stroke="#FF8484" stroke-width="2.5" stroke-linecap="round" stroke-linejoin="round"/>
<path d="M143 109.5L136 104.007L143 98.7776" stroke="#FF8484" stroke-width="2.5" stroke-linecap="round" stroke-linejoin="round"/>
<path d="M137 67.5C143.509 69.2226 148.648 74.3129 150.44 80.7932" stroke="#FF8484" stroke-width="2.5" stroke-linecap="round"/>
<path d="M158 50.5C159.657 50.5 161 49.1569 161 47.5C161 45.8431 159.657 44.5 158 44.5C156.343 44.5 155 45.8431 155 47.5C155 49.1569 156.343 50.5 158 50.5Z" stroke="#FF8484" stroke-width="2"/>
<path d="M189 61C190.381 61 191.5 62.1193 191.5 63.5C191.5 64.8807 190.381 66 189 66C187.619 66 186.5 64.8807 186.5 63.5C186.5 62.1193 187.619 61 189 61Z" fill="#FF8484" stroke="#FF8484"/>
<path d="M165.758 58.2573L174.116 66.6156M174.243 58.2573L165.885 66.6156L174.243 58.2573Z" stroke="#FF8484" stroke-width="2.5" stroke-linecap="round" stroke-linejoin="round"/>
<path d="M71.4043 76.0962L77.4043 82.0962M77.4043 76.0962L71.4043 82.0962L77.4043 76.0962Z" stroke="#FF8484" stroke-width="2.5" stroke-linecap="round" stroke-linejoin="round"/>
<path d="M85 64C86.3807 64 87.5 65.1193 87.5 66.5C87.5 67.8807 86.3807 69 85 69C83.6193 69 82.5 67.8807 82.5 66.5C82.5 65.1193 83.6193 64 85 64Z" fill="#FF8484" stroke="#FF8484"/>
</svg>
