<svg width="512" height="489" viewBox="0 0 512 489" fill="none" xmlns="http://www.w3.org/2000/svg">
<g clip-path="url(#clip0_10366_1534)">
<rect width="512" height="489" rx="8" fill="white"/>
<path d="M240.354 176.254C240.695 176.256 241.028 176.148 241.302 175.946C241.577 175.744 241.78 175.459 241.88 175.133C241.969 174.099 241.702 173.065 241.124 172.202C240.48 171.292 239.754 170.64 238.562 171.336C236.828 172.35 238.381 176.254 240.354 176.254Z" fill="black"/>
<path d="M244.705 171.533C246.486 173.765 248.482 175.816 250.665 177.657C248.396 178.95 247.451 179.301 247.445 180.205C247.461 180.499 247.573 180.778 247.766 181C247.928 181.145 248.125 181.247 248.337 181.294C248.55 181.342 248.771 181.335 248.98 181.274C250.244 180.705 251.451 180.018 252.586 179.222C252.826 179.057 253.023 178.836 253.158 178.577C253.293 178.319 253.363 178.031 253.361 177.739C253.339 176.706 252.377 176.002 251.865 175.632C249.909 173.931 248.092 171.974 246.111 170.073C245.865 169.898 245.571 169.802 245.27 169.799C245.067 169.799 244.87 169.863 244.706 169.982C244.542 170.101 244.42 170.269 244.358 170.461C244.295 170.654 244.295 170.861 244.357 171.054C244.42 171.246 244.542 171.414 244.705 171.533Z" fill="black"/>
<path d="M250.626 180.632C249.411 181.295 248.041 181.623 246.657 181.581C245.273 181.54 243.925 181.131 242.752 180.397C242.772 180.236 242.755 180.072 242.705 179.918C242.654 179.764 242.569 179.623 242.457 179.506C242.345 179.388 242.209 179.297 242.057 179.239C241.906 179.181 241.743 179.157 241.582 179.169C240.976 179.169 240.76 179.473 239.59 180.501C239.436 180.642 239.327 180.825 239.276 181.027C239.225 181.229 239.234 181.442 239.301 181.64C239.369 181.837 239.493 182.01 239.657 182.138C239.822 182.266 240.02 182.344 240.228 182.361C241.132 187.891 246.442 189.852 249.782 186.797C250.643 185.792 249.541 184.183 248.084 185.153C247.591 185.618 246.948 185.89 246.272 185.923C245.596 185.955 244.93 185.744 244.396 185.329C243.569 184.64 242.965 183.722 242.658 182.69C246.681 184.504 251.374 183.068 251.955 181.912C252.053 181.728 252.089 181.517 252.056 181.311C252.023 181.105 251.924 180.915 251.774 180.77C251.624 180.626 251.43 180.534 251.223 180.509C251.016 180.484 250.807 180.527 250.626 180.632Z" fill="black"/>
<path d="M238.516 169.289C240.324 169.111 240.297 167.185 239.157 166.987C238.197 167.012 237.266 167.323 236.483 167.878C235.7 168.434 235.1 169.21 234.759 170.108C234.698 170.277 234.682 170.46 234.715 170.638C234.748 170.815 234.828 170.98 234.946 171.116C235.064 171.252 235.217 171.354 235.388 171.411C235.559 171.468 235.742 171.478 235.918 171.44C236.661 171.267 236.431 170.618 237.65 169.755C237.917 169.562 238.208 169.405 238.516 169.289Z" fill="black"/>
<path d="M112.922 260.755C114.037 260.059 112.941 258.097 111.788 258.813C106.253 262.271 69.1535 285.278 56.2947 293.611C56.0569 293.794 55.897 294.061 55.8468 294.357C55.7967 294.653 55.86 294.957 56.0242 295.209C56.1884 295.461 56.4414 295.641 56.7327 295.715C57.024 295.788 57.3323 295.749 57.5962 295.605C76.1597 284.454 94.4328 272.425 112.922 260.755Z" fill="black"/>
<path d="M91.9834 203.859C92.1238 203.867 92.2641 203.843 92.3937 203.788C92.5233 203.734 92.6389 203.651 92.7318 203.545C92.8246 203.44 92.8923 203.315 92.9298 203.179C92.9672 203.044 92.9734 202.902 92.9479 202.763C92.9671 202.632 92.959 202.499 92.9241 202.371C92.8892 202.244 92.8283 202.125 92.7452 202.022C92.6621 201.919 92.5585 201.834 92.4411 201.773C92.3237 201.712 92.1949 201.676 92.0629 201.667C68.8904 200.39 45.6548 200.854 22.5518 203.057C22.3037 203.092 22.0761 203.214 21.9096 203.402C21.743 203.589 21.6482 203.829 21.6419 204.08C21.6357 204.33 21.7184 204.575 21.8755 204.77C22.0325 204.966 22.2537 205.099 22.4998 205.147C22.4998 205.147 89.6709 203.829 91.9834 203.859Z" fill="black"/>
<path d="M99.0473 110.044C99.1819 110.159 99.3399 110.242 99.5101 110.288C99.6803 110.335 99.8586 110.344 100.033 110.314C100.207 110.284 100.372 110.216 100.517 110.116C100.662 110.016 100.783 109.884 100.872 109.732C100.951 109.522 100.973 109.295 100.934 109.073C100.896 108.852 100.799 108.645 100.653 108.474C91.2301 98.6077 80.9852 88.6067 69.3649 77.9399C69.2558 77.8392 69.1247 77.7652 68.9821 77.7238C68.8395 77.6824 68.6892 77.6746 68.5431 77.7012C68.397 77.7278 68.2591 77.7879 68.1401 77.8769C68.0212 77.9658 67.9246 78.0812 67.8579 78.2139C67.0743 79.7811 66.3208 77.1316 99.0473 110.044Z" fill="black"/>
<path d="M140.421 71.578C148.852 87.6016 148.736 87.7139 149.649 87.7139H149.898C150.072 87.7127 150.243 87.6642 150.392 87.5736C150.54 87.483 150.662 87.3537 150.743 87.1996C150.824 87.0454 150.861 86.8722 150.852 86.6983C150.842 86.5245 150.785 86.3565 150.687 86.2124C149.279 83.1491 147.599 80.1488 145.977 77.2416C145.448 76.2991 139.146 64.6952 137.99 62.5936C137.899 62.4212 137.758 62.2801 137.585 62.1884C137.413 62.0966 137.217 62.0583 137.023 62.0785C136.858 62.0793 136.697 62.1224 136.554 62.2036C136.411 62.2848 136.291 62.4013 136.205 62.5421C136.12 62.6828 136.073 62.8431 136.067 63.0075C136.061 63.172 136.098 63.3351 136.174 63.4813C137.571 66.1775 139.001 68.8791 140.421 71.578Z" fill="black"/>
<path d="M275.876 91.8154C277.328 91.2482 275.3 92.473 285.74 50.0331C285.777 49.835 285.759 49.6303 285.688 49.4417C285.617 49.253 285.495 49.0877 285.336 48.9639C285.176 48.8401 284.986 48.7627 284.786 48.74C284.585 48.7174 284.383 48.7505 284.2 48.8357C283.903 48.9819 283.676 49.2387 283.567 49.5509C279.845 63.1225 276.842 76.8808 274.569 90.7687C274.54 90.9372 274.556 91.1104 274.617 91.2703C274.677 91.4302 274.78 91.5709 274.913 91.6778C275.047 91.7847 275.206 91.8538 275.376 91.878C275.545 91.9022 275.718 91.8806 275.876 91.8154Z" fill="black"/>
<path d="M374.047 124.572C377.069 120.605 380.588 117.041 384.517 113.968C384.517 113.968 415.635 86.6724 421.633 81.313C422.66 80.428 421.66 78.6196 420.06 79.5402C414.517 84.3105 382.478 112.694 382.478 112.694C378.613 115.742 375.181 119.302 372.277 123.276C372.124 123.539 372.076 123.85 372.143 124.147C372.209 124.443 372.385 124.704 372.636 124.876C372.873 124.98 373.137 125.006 373.391 124.952C373.644 124.897 373.873 124.764 374.047 124.572Z" fill="black"/>
<path d="M404.886 167.719C404.524 167.853 404.373 168.231 404.264 168.669C404.221 168.84 404.225 169.018 404.277 169.186C404.328 169.354 404.425 169.505 404.556 169.621C404.687 169.738 404.848 169.816 405.02 169.848C405.193 169.88 405.371 169.864 405.535 169.801C425.159 162.318 428.603 161.803 437.478 158.756C437.747 158.622 437.962 158.401 438.089 158.129C438.168 157.944 438.194 157.741 438.166 157.542C438.137 157.343 438.054 157.156 437.926 157.001C437.799 156.846 437.631 156.729 437.441 156.663C437.251 156.597 437.047 156.585 436.851 156.627C429.102 158.751 412.33 164.921 404.886 167.719Z" fill="black"/>
<path d="M491.725 261.501C491.089 261.252 406.341 258.084 400.105 258.213C399.937 258.217 399.773 258.265 399.63 258.352C399.486 258.439 399.368 258.562 399.287 258.709C399.206 258.856 399.165 259.022 399.168 259.19C399.171 259.357 399.218 259.521 399.305 259.665C399.379 259.839 399.5 259.988 399.655 260.096C399.811 260.203 399.993 260.265 400.181 260.274C408.27 260.548 487.527 263.734 491.297 263.734C491.564 263.729 491.821 263.633 492.024 263.461C492.228 263.29 492.367 263.053 492.417 262.791C492.467 262.529 492.426 262.258 492.3 262.023C492.174 261.789 491.971 261.604 491.725 261.501Z" fill="black"/>
<path d="M460.16 318.107C459.93 317.833 461.234 318.49 438.577 308.043C439.826 305.807 441.119 303.59 442.454 301.393C442.554 301.122 442.561 300.825 442.474 300.549C442.388 300.274 442.212 300.034 441.976 299.869C441.739 299.703 441.454 299.62 441.166 299.633C440.877 299.646 440.601 299.754 440.38 299.941L431.023 304.815C413.761 296.751 397.893 289.816 382.591 283.64C376.352 281.13 359.802 274.598 359.747 274.563L359.725 274.604C358.725 274.313 358.629 274.53 358.416 275.053C358.032 276.004 358.087 275.985 361.906 277.541C346.798 306.766 332.588 330.344 315.806 364.758C313.305 365.924 311.267 367.895 310.019 370.356C308.328 374.644 312.606 374.669 293.579 292.027C286.334 260.556 286.899 262.323 286.526 262.016C286.364 261.881 286.167 261.793 285.958 261.762C285.749 261.73 285.535 261.757 285.34 261.838C285.34 261.838 272.133 264.247 267.327 265.241C266.916 262.012 267.306 258.732 268.464 255.69C268.652 255.864 268.893 255.97 269.148 255.991C269.404 256.012 269.659 255.946 269.872 255.805C274.43 253.241 278.635 250.096 282.381 246.448C284.353 244.747 286.028 242.729 287.335 240.477C287.925 238.338 287.646 236.052 286.559 234.118C284.723 228.884 282.526 223.785 279.983 218.856C308.869 200.608 334.173 177.231 354.648 149.879C355.404 149.972 360.227 150.569 360.566 150.569C362.948 150.569 363.937 148.287 362.515 146.868C363.534 146.835 365.115 146.616 365.419 145.122C365.488 144.707 365.427 144.281 365.245 143.902C365.063 143.522 364.769 143.208 364.402 143.002C364.537 142.79 364.627 142.553 364.669 142.306C364.71 142.059 364.702 141.806 364.644 141.562C364.586 141.318 364.479 141.088 364.331 140.886C364.183 140.684 363.996 140.513 363.78 140.385C361.991 139.294 359.89 138.827 357.807 139.059C358.053 138.822 358.236 138.529 358.341 138.205C358.446 137.88 358.469 137.535 358.408 137.2C358.348 136.864 358.205 136.549 357.993 136.282C357.781 136.015 357.506 135.805 357.194 135.669C356.362 135.405 355.459 135.478 354.681 135.872C351.91 136.712 349.506 138.468 347.864 140.853C346.74 141.081 324.229 151.452 309.504 159.403C294.954 167.273 262.406 187.02 249.788 194.947C249.618 194.536 249.421 194.045 249.309 193.686C249.912 193.507 250.503 193.293 251.082 193.045C256.633 189.806 258.411 182.559 257.216 176.632C257.132 176.186 256.997 175.756 256.901 175.312C258.369 173.341 259.567 171.183 260.463 168.895C260.585 167.737 260.476 166.567 260.142 165.453C259.808 164.338 259.256 163.301 258.518 162.401C258 161.731 257.712 160.913 257.696 160.066C257.888 158.387 260.71 156.808 258.792 153.359C258.148 152.172 257.284 151.119 256.246 150.254C252.668 146.492 248.264 143.613 243.382 141.843C238.842 140.221 233.88 140.221 229.34 141.843C227.338 142.927 225.406 144.134 223.553 145.457C221.709 146.397 219.773 147.143 217.774 147.682C215.479 148.623 213.465 150.139 211.925 152.084C210.385 154.029 209.372 156.337 208.981 158.787C208.075 163.826 210.253 168.651 209.647 173.583C209.168 177.468 204.88 179.981 200.748 181.926C199.379 182.442 198.06 183.084 196.81 183.844C160.873 171.788 127.94 162.214 107.352 156.956C107.08 156.84 106.774 156.834 106.497 156.94C105.507 155.144 104.202 153.542 102.645 152.208C102.31 151.98 101.923 151.839 101.519 151.799C101.116 151.759 100.709 151.82 100.335 151.978C99.1047 152.611 99.3541 154.194 99.7295 155.523C97.6739 154.633 95.3998 154.376 93.1973 154.784C92.9007 154.836 92.6223 154.964 92.3885 155.154C92.1547 155.344 91.973 155.59 91.8607 155.87C91.7483 156.149 91.7089 156.453 91.7462 156.752C91.7835 157.05 91.8963 157.335 92.0739 157.578C91.6453 157.683 91.2601 157.919 90.972 158.253C90.6838 158.588 90.5071 159.003 90.4664 159.443C90.4257 159.882 90.523 160.323 90.7449 160.705C90.9667 161.086 91.302 161.389 91.704 161.571C91.2989 161.923 91.0406 162.414 90.9802 162.947C90.9199 163.48 91.0618 164.017 91.3779 164.45C92.9096 166.659 95.0303 165.059 101.79 168.755C101.765 168.911 101.71 169.048 101.686 169.204C101.686 172.268 104.283 173.928 106.368 175.265C127.976 189.124 148.085 201.81 182.973 220.889C180.096 227.172 176.918 233.391 173.485 239.381C173.365 239.616 173.323 239.883 173.363 240.143C173.403 240.404 173.524 240.645 173.709 240.833C182.061 247.649 191.216 253.417 200.97 258.008C202.566 259.073 204.38 259.771 206.28 260.049C207.046 260.065 207.792 259.8 208.376 259.304C208.65 258.983 208.877 258.638 209.124 258.301C209.203 258.334 209.286 258.358 209.365 258.391C209.702 265.962 205.625 272.05 201.644 278.574C175.512 284.243 149.112 290.334 123.006 296.746C122.723 296.873 122.495 297.099 122.366 297.381C122.237 297.663 122.215 297.983 122.304 298.28C129.094 316.622 135.278 335.226 141.758 354.141C141.484 354.031 75.9736 328.234 63.9067 325.017C62.375 323.414 59.6652 326.286 62.0216 326.853C83.9909 357.683 107.448 398.583 138.468 450.701C128.049 448.673 117.272 449.583 107.341 453.328C99.4966 456.359 90.8382 463.329 92.2712 473.01C93.6768 482.6 104.176 487.694 112.024 491.132C123.114 495.843 133.717 501.625 143.685 508.394C153.389 515.323 160.879 524.914 165.248 536.008C165.024 536.14 164.854 536.347 164.766 536.592C163.215 541.365 160.026 555.961 158.809 561.474C158.05 564.165 157.515 566.914 157.209 569.694C157.212 569.975 157.317 570.246 157.505 570.456C157.693 570.666 157.95 570.8 158.23 570.833C158.51 570.867 158.792 570.798 159.024 570.638C159.256 570.479 159.422 570.241 159.492 569.968C160.3 567.258 160.916 564.495 161.336 561.698C161.916 558.98 166.01 541.302 166.542 538.932C209.56 555.772 255.956 558.139 301.481 548.382C304.225 548.14 306.898 547.376 309.356 546.132C309.983 547.943 318.192 570.406 318.192 570.406C318.304 570.717 318.535 570.972 318.834 571.113C319.133 571.254 319.476 571.271 319.787 571.159C320.098 571.048 320.353 570.817 320.494 570.518C320.635 570.219 320.652 569.876 320.541 569.565C320.541 569.565 312.205 547.015 311.057 544.28C311.914 542.98 312.395 541.469 312.449 539.913C313.91 531.633 317.083 523.749 321.765 516.767C326.447 509.784 332.536 503.855 339.641 499.361C357.415 488.091 369.992 485.217 389.709 478.389C395.241 476.731 400.637 474.648 405.848 472.158C413.991 468.177 421.685 459.976 417.035 450.887C412.511 442.04 399.379 438.524 389.117 439.015C387.438 439.111 385.766 439.308 384.111 439.607C411.457 400.745 432.467 360.421 460.165 319.622C460.342 319.409 460.438 319.14 460.437 318.863C460.436 318.587 460.338 318.319 460.16 318.107ZM364.134 278.763C364.408 278.763 388.682 288.449 400.924 293.748C406.746 296.269 425.272 304.574 428.62 306.059L319.488 362.881C331.479 338.679 363.959 279.037 364.134 278.763ZM309.844 378.957C309.997 378.819 310.118 378.649 310.201 378.46C310.283 378.271 310.324 378.067 310.32 377.861C310.32 377.748 310.287 377.633 310.274 377.521C311.751 372.614 312.285 369.254 316.71 367.038C321.502 364.637 437.64 304.072 437.917 303.927C431.21 315.97 425.375 328.478 420.457 341.356C419.087 344.709 378.212 442.377 376.069 446.585C373.792 450.49 369.047 452.369 365.055 454.567C330.237 473.772 296.176 492.004 262.806 512.721C280.778 468.407 295.733 424.641 309.852 378.959L309.844 378.957ZM238.499 268.107C238.719 268.802 239.087 269.441 239.577 269.98C240.067 270.519 240.668 270.946 241.338 271.231C237.519 271.59 233.672 271.555 229.86 271.124C226.283 270.379 222.746 269.456 219.262 268.357L220.544 261.833C226.629 263.24 232.844 264.007 239.089 264.123C238.463 265.351 238.256 266.751 238.499 268.107ZM249.054 267.192C249.706 267.121 250.353 267.015 250.994 266.877C250.423 267.605 249.694 268.194 248.862 268.6C248.03 269.005 247.116 269.216 246.191 269.217C244.837 269.381 242.319 269.691 241.319 268.483C240.885 267.811 240.687 267.014 240.756 266.218C240.826 265.422 241.159 264.671 241.703 264.085C244.325 264.032 246.939 263.77 249.52 263.301C249.561 263.301 249.602 263.356 249.643 263.359C250.177 263.421 250.668 263.686 251.013 264.099L248.821 264.471C248.482 264.529 248.177 264.711 247.967 264.983C247.756 265.254 247.655 265.595 247.684 265.938C247.713 266.28 247.87 266.599 248.123 266.831C248.376 267.064 248.708 267.193 249.051 267.192H249.054ZM238.664 321.334C238.878 320.491 239.576 318.4 240.357 317.975C243.741 302.757 246.199 289.833 243.612 274.905C243.55 274.547 243.633 274.179 243.842 273.881C244.052 273.584 244.371 273.382 244.729 273.32C245.087 273.258 245.455 273.341 245.753 273.55C246.05 273.759 246.252 274.078 246.314 274.437C247.289 280.848 247.594 287.344 247.224 293.819C248.097 293.286 248.84 292.562 249.396 291.703C249.952 290.844 250.308 289.87 250.438 288.855C250.761 283.926 250.477 278.977 249.591 274.119C249.555 273.94 249.555 273.756 249.591 273.577C249.627 273.399 249.699 273.229 249.801 273.078C249.904 272.928 250.035 272.799 250.188 272.7C250.341 272.6 250.512 272.533 250.692 272.5C250.871 272.468 251.055 272.472 251.233 272.512C251.411 272.552 251.579 272.626 251.728 272.732C251.876 272.837 252.002 272.972 252.098 273.126C252.194 273.281 252.259 273.454 252.287 273.634C253.237 278.782 253.526 284.03 253.148 289.252C252.92 290.99 252.22 292.633 251.122 294.001C250.025 295.368 248.573 296.408 246.925 297.006C246.207 303.05 244.566 311.35 243.188 317.778C243.264 317.798 243.339 317.821 243.412 317.849C244.571 318.312 244.714 321.817 244.977 323.003C250.134 346.737 253.822 353.965 274.596 408.001C269.807 409.645 274.013 408.529 245.826 419.254C240.585 421.249 221.961 427.871 217.941 429.34C216.218 425.619 207.425 406.598 204.696 400.753C208.477 393.199 221.216 363.815 222.966 359.547C229.123 344.545 221.147 364.684 238.664 321.334ZM252.871 262.581C254.821 262.073 256.739 261.444 258.611 260.698L258.91 267.239C256.589 268.061 254.274 268.817 251.972 269.411C252.984 268.615 253.644 267.455 253.812 266.179C253.98 264.903 253.642 263.611 252.871 262.581ZM275.374 410.036C279.246 420.092 283.161 430.137 287.214 440.127C287.351 440.749 275.936 472.709 260.05 513.943C245.865 489.184 231.674 458.935 218.777 431.143C234.187 426.041 270.653 412.201 275.374 410.036ZM283.668 264.362C283.993 264.259 284.324 264.174 284.658 264.107C284.913 264.785 285.112 265.484 285.252 266.195C294.746 308.454 303.394 342.408 307.72 376.863C307.361 377.995 307.076 379.135 306.761 380.272C306.482 372.848 305.539 365.465 303.944 358.209C296.478 321.219 287.061 299.628 274.821 280.517C271.727 276.53 269.327 272.05 267.722 267.266C268.738 267.093 282.69 264.652 283.668 264.362ZM269.223 279.212C269.451 279.104 269.699 279.046 269.951 279.043C270.203 279.04 270.453 279.091 270.684 279.193C270.944 279.327 271.155 279.54 271.285 279.802C271.416 280.064 271.459 280.361 271.408 280.649C271.358 280.937 271.216 281.202 271.004 281.404C270.793 281.606 270.522 281.735 270.231 281.772C262.658 284.205 258.543 279.81 257.101 272.195C257.034 271.838 257.112 271.469 257.317 271.169C257.522 270.869 257.837 270.662 258.195 270.595C258.552 270.528 258.921 270.605 259.221 270.81C259.521 271.015 259.728 271.331 259.795 271.688C260.91 277.582 263.521 281.078 269.223 279.212ZM264.905 264.841C263.694 265.389 262.485 265.907 261.277 266.381C261.433 265.559 261.425 265.992 260.693 259.843C262.288 259.126 263.843 258.324 265.351 257.44C264.744 259.858 264.593 262.368 264.905 264.841ZM283.329 232.457C284.294 234.327 284.952 236.34 285.28 238.419C285.28 240.157 283.126 242.044 281.89 243.384C278.477 247.055 274.569 250.232 270.278 252.824C270.231 252.55 268.272 242.31 268.215 242.031C268.308 241.757 271.445 214.905 269.881 206.841C275.38 214.806 279.896 223.407 283.329 232.457ZM355.339 138.475C353.127 140.199 353.053 139.859 352.834 140.393C352.75 140.631 352.736 140.889 352.794 141.135C352.852 141.381 352.98 141.605 353.163 141.78C353.313 141.905 353.49 141.995 353.68 142.042C353.869 142.09 354.068 142.094 354.259 142.054C355.588 141.702 356.967 141.583 358.336 141.703C357.779 141.777 357.229 141.899 356.692 142.067C356.394 142.148 356.136 142.338 355.97 142.598C355.803 142.859 355.739 143.172 355.79 143.477C355.841 143.782 356.004 144.057 356.247 144.248C356.489 144.44 356.795 144.535 357.103 144.514C358.316 144.346 359.546 144.346 360.758 144.514C361.287 144.528 360.934 144.539 357.196 144.678C355.062 144.196 354.645 146.977 356.374 147.191C357.297 147.359 358.205 147.595 359.092 147.898C358.358 147.813 355.136 147.405 354.234 147.309C352.968 145.404 351.508 143.636 349.878 142.032C351.353 140.39 353.237 139.169 355.339 138.494V138.475ZM331.802 150.775C332.076 150.643 347.625 143.339 347.902 143.445C349.559 145.201 351.034 147.12 352.305 149.172C351.926 149.663 351.521 150.134 351.092 150.583C331.077 176.712 306.596 199.094 278.783 216.694C276.605 212.637 274.196 208.709 271.569 204.928C271.448 204.753 271.284 204.613 271.092 204.52C270.901 204.428 270.689 204.386 270.477 204.4C270.265 204.414 270.06 204.483 269.882 204.6C269.705 204.718 269.561 204.879 269.464 205.068C268.864 202.167 267.524 199.47 265.574 197.24C263.624 195.01 261.13 193.322 258.334 192.341C281.961 177.879 306.397 162.932 331.802 150.775ZM255.63 193.998C265.341 194.873 268.056 206.054 268.124 212.543C268.124 216.899 267.804 219.491 266.593 234.646C264.262 224.009 261.197 213.547 257.419 203.334C256.673 200.413 255.223 197.719 253.197 195.486L255.63 193.998ZM249.394 197.673C249.999 197.492 249.912 197.495 251.24 196.684C253.69 199.572 255.408 203.008 256.249 206.701C257.293 209.956 259.099 214.921 261.598 224.037C264.209 233.568 266.272 243.24 267.776 253.007C259.974 258.59 250.667 261.686 241.075 261.89C223.446 262.301 211.56 256.254 210.275 256.542C213.288 251.643 215.944 246.534 218.221 241.253C224.073 227.755 227.453 213.316 228.2 198.624C228.279 198.451 228.54 197.845 228.592 197.714C247.511 204.756 229.183 197.914 241.404 202.492C241.523 202.541 241.65 202.566 241.778 202.564C241.907 202.563 242.034 202.536 242.151 202.485C242.269 202.433 242.375 202.359 242.464 202.266C242.552 202.173 242.621 202.063 242.666 201.943C242.711 201.822 242.732 201.694 242.727 201.566C242.721 201.438 242.69 201.312 242.635 201.196C242.581 201.08 242.503 200.976 242.407 200.89C242.311 200.805 242.199 200.739 242.078 200.698C231.118 196.588 232.729 197.237 232.165 196.848C232.126 196.553 232.069 196.26 231.995 195.971C231.995 195.886 231.954 195.823 231.943 195.744C234.757 197.355 237.894 198.322 241.127 198.577C242.996 198.958 244.901 199.13 246.807 199.089C247.317 199.074 247.816 198.937 248.263 198.691C248.71 198.445 249.092 198.096 249.377 197.673H249.394ZM217.018 267.631C215.05 267.005 213.139 266.211 211.308 265.258C211.832 263.319 211.989 261.3 211.771 259.304C213.839 260.03 215.941 260.657 218.073 261.208C216.977 266.337 216.867 266.433 217.018 267.631ZM220.558 178.77C221.544 175.312 227.041 178.145 227.312 180.833C227.294 181.59 227.453 182.341 227.778 183.025C228.238 183.677 228.638 183.532 229.638 184.724C230.422 185.655 231.83 187.335 232.255 186.195C232.657 184.555 232.508 182.829 231.83 181.282C231.893 180.011 232.382 178.797 233.22 177.838C235.302 174.701 233.156 170.67 235.266 167.686C237.584 164.754 239.502 165.601 242.604 162.812C243.126 162.334 243.507 161.722 243.707 161.043C243.907 160.364 243.918 159.644 243.738 158.959C245.855 160.136 247.798 161.602 249.509 163.316C249.621 163.491 249.731 163.669 249.838 163.848H249.802C248.971 163.965 248.218 164.4 247.7 165.061C247.018 165.933 248.248 167.253 249.07 166.659C249.357 166.393 249.705 166.205 250.084 166.111C250.415 166.036 250.76 166.051 251.084 166.152H251.114C251.451 166.815 251.78 167.483 252.076 168.168C251.891 167.946 251.652 167.775 251.381 167.672C251.111 167.568 250.819 167.535 250.533 167.576C250.246 167.618 249.975 167.731 249.745 167.907C249.515 168.083 249.334 168.314 249.218 168.579C249.053 169.267 249.09 169.988 249.326 170.654C249.563 171.321 249.988 171.904 250.55 172.333C250.792 172.552 251.096 172.689 251.42 172.726C251.745 172.763 252.072 172.698 252.357 172.539C252.642 172.381 252.87 172.137 253.009 171.842C253.149 171.547 253.192 171.216 253.134 170.895C254.937 176.183 255.893 182.849 253.153 187.551C252.552 188.609 251.73 189.526 250.744 190.238C249.758 190.951 248.63 191.444 247.437 191.683C247.267 191.728 247.108 191.806 246.969 191.914C246.829 192.021 246.714 192.156 246.628 192.309C246.542 192.463 246.488 192.632 246.47 192.807C246.451 192.982 246.468 193.159 246.519 193.327C247.018 194.79 247.341 195.604 247.615 196.421C247.122 196.865 245.497 196.719 244.601 196.637C240.018 196.553 235.525 195.345 231.518 193.119C231.118 192.894 231.356 193.431 230.896 191.768C230.635 190.494 230.268 189.244 229.8 188.031C229.652 187.713 229.112 185.976 227.882 186.748C226.801 186.907 225.697 186.721 224.727 186.218C223.758 185.714 222.971 184.918 222.479 183.943C221.792 183.279 221.264 182.469 220.931 181.574C220.599 180.679 220.471 179.721 220.558 178.77ZM225.312 204.323C224.103 216.019 221.192 227.475 216.67 238.329C217.062 224.87 216.259 218.746 216.358 213.395C220.378 211.606 223.576 208.366 225.312 204.323ZM102.371 166.294C100.393 165.249 98.2807 164.48 96.0935 164.009C95.2839 163.861 94.4903 163.636 93.7234 163.338C94.9414 163.244 96.1663 163.374 97.3374 163.721C97.5605 163.768 97.7923 163.752 98.0063 163.673C98.2204 163.595 98.4081 163.458 98.548 163.278C98.688 163.098 98.7746 162.882 98.7979 162.655C98.8212 162.429 98.7804 162.2 98.68 161.995C98.6546 161.814 98.5775 161.643 98.458 161.505C98.3385 161.366 98.1816 161.264 98.006 161.212C97.4174 161.035 96.8167 160.901 96.2085 160.812L93.4905 159.907C94.0945 159.825 94.7093 159.877 95.2906 160.061C96.2874 160.251 97.2698 160.51 98.2307 160.836C99.8336 161.384 100.225 158.825 99.0088 158.389C98.0206 158.111 97.0842 157.674 96.2359 157.096C98.0079 157.3 99.6872 157.997 101.083 159.107C101.262 159.344 101.522 159.506 101.813 159.562C102.105 159.618 102.406 159.564 102.66 159.411C102.914 159.258 103.102 159.016 103.189 158.732C103.275 158.449 103.253 158.143 103.127 157.874C102.689 156.835 102.327 155.766 102.045 154.674C103.248 156.122 104.27 157.712 105.086 159.409L103.508 163.519C103.051 164.41 102.67 165.338 102.371 166.294ZM209.195 253.41C208.538 254.533 207.313 257.361 206.258 257.591C205.11 257.843 201.83 255.884 200.452 255.232C192.207 251.268 184.435 246.385 177.285 240.677C176.277 239.992 176.069 239.713 176.022 239.825C179.411 234.102 182.432 228.167 185.064 222.059C185.275 222.171 185.483 222.294 185.697 222.404C185.981 222.548 186.311 222.575 186.615 222.477C186.919 222.38 187.172 222.166 187.319 221.883C187.466 221.609 187.497 221.287 187.407 220.989C187.316 220.691 187.111 220.441 186.837 220.294C156.971 204.298 135.974 191.631 107.503 173.399C104.933 171.755 103.533 170.645 104.371 168.193C105.243 165.25 106.368 162.388 107.733 159.639C108.007 159.685 137.024 167.807 140.265 168.752C164.182 175.553 179.173 180.556 194.243 185.6C193.077 186.27 192.084 187.203 191.342 188.325C190.601 189.446 190.133 190.726 189.974 192.061C189.826 195.368 193.079 199.155 190.796 201.98C189.248 203.942 185.864 203.624 183.809 205.268C183.162 205.955 182.686 206.784 182.418 207.689C182.15 208.594 182.098 209.548 182.266 210.477C182.435 211.405 182.819 212.281 183.388 213.034C183.956 213.787 184.694 214.396 185.541 214.812C185.577 214.841 185.624 214.855 185.67 214.85C185.717 214.845 185.759 214.822 185.789 214.785C185.818 214.749 185.832 214.703 185.827 214.656C185.822 214.61 185.799 214.567 185.763 214.538C184.757 213.395 185.763 211.389 187.204 210.882C188.779 210.55 190.419 210.73 191.884 211.397C197.257 213.464 202.929 214.651 208.68 214.913C210.498 214.971 212.314 214.739 214.059 214.225C214.023 222.7 215.103 230.939 214.185 243.886C212.59 247.253 210.916 250.473 209.195 253.41ZM204.288 281.325C207.337 281.806 210.46 281.249 213.156 279.744C215.851 278.24 217.964 275.874 219.155 273.026C219.312 272.707 219.587 272.462 219.921 272.342C220.256 272.222 220.624 272.236 220.947 272.382C221.271 272.528 221.526 272.795 221.657 273.125C221.788 273.455 221.786 273.823 221.651 274.152C220.214 277.509 217.709 280.299 214.526 282.089C211.342 283.88 207.657 284.57 204.041 284.054C203.861 284.038 203.686 283.986 203.526 283.903C203.366 283.819 203.224 283.704 203.109 283.566C202.993 283.427 202.906 283.267 202.852 283.094C202.798 282.922 202.778 282.741 202.795 282.561C202.811 282.381 202.862 282.206 202.946 282.046C203.03 281.886 203.144 281.744 203.283 281.628C203.422 281.512 203.582 281.425 203.754 281.371C203.927 281.317 204.108 281.298 204.288 281.314V281.325ZM126.54 303.04C125.003 298.869 124.896 299.099 124.896 298.776C126.305 298.209 196.972 282.079 200.024 281.413C185.478 306.876 180.179 339.09 176.6 368.238C175.09 367.616 153.713 358.946 144.391 355.223C139.213 338.013 133.303 321.381 126.54 303.04ZM65.7973 327.661C66.8933 328.045 185.839 374.562 189.777 376.6C193.405 379.888 229.57 464.979 255.701 511.682C252.613 509.888 249.41 508.3 246.111 506.931C238.491 503.249 152.31 464.33 149.186 462.699C147.534 461.688 94.3837 368.739 65.7973 327.661ZM399.127 442.218C404.273 443.144 409.035 445.557 412.827 449.158C414.481 450.808 415.521 452.975 415.773 455.297C416.026 457.62 415.477 459.96 414.216 461.927C411.386 465.659 407.599 468.555 403.256 470.308C378.453 480.622 362.123 482.271 339.488 496.144C331.872 500.88 325.312 507.131 320.215 514.509C315.117 521.887 311.591 530.235 309.855 539.033C309.724 540.101 309.492 541.155 309.161 542.178C308.839 542.837 308.353 543.401 307.75 543.817C307.147 544.234 306.447 544.488 305.717 544.557C285.43 549.248 264.665 551.561 243.842 551.451C217.865 551.115 192.159 546.122 167.944 536.709V536.674L167.925 536.6C161.623 514.326 140.112 501.479 124.483 493.752C111.605 487.392 105.152 485.836 98.4992 479.337C96.977 477.835 95.8753 475.961 95.3041 473.901C94.7329 471.84 94.7122 469.666 95.2441 467.596C96.9277 463.266 100.179 459.728 104.352 457.685C113.917 452.205 127.305 450.852 140.334 453.849C141.608 455.992 142.887 458.145 144.17 460.22C144.933 461.72 145.872 463.123 146.967 464.401C147.783 465.015 148.683 465.509 149.639 465.869C247.709 510.43 246.972 509.816 256.89 515.442C258.954 516.612 259.587 517.779 262.039 516.236C266.242 513.595 281.937 502.851 355.892 462.491C368.754 455.474 367.636 456.216 371.072 454.175C370.941 454.405 370.794 454.625 370.63 454.833C369.962 456.011 370.954 457.123 372.121 455.929L372.162 455.951C373.877 453.877 375.476 451.71 376.952 449.46C377.059 449.399 377.153 449.316 377.226 449.216C377.341 449.057 380.801 444.284 382.262 442.242C387.827 441.12 393.559 441.111 399.127 442.218ZM455.297 322.6C428.201 363.413 408.503 400.005 382.96 437.132C432.927 318.082 431.639 320.885 437.426 310.202C459.346 320.269 457.214 319.167 457.491 319.422C456.881 320.56 456.146 321.626 455.302 322.603L455.297 322.6Z" fill="black"/>
</g>
<defs>
<clipPath id="clip0_10366_1534">
<rect width="512" height="489" rx="8" fill="white"/>
</clipPath>
</defs>
</svg>
