<svg width="20" height="17" viewBox="0 0 20 17" fill="none" xmlns="http://www.w3.org/2000/svg">
<path d="M13.9694 9.71937L17.1897 6.5H6.25C5.05653 6.5 3.91193 6.97411 3.06802 7.81802C2.22411 8.66193 1.75 9.80653 1.75 11C1.75 12.1935 2.22411 13.3381 3.06802 14.182C3.91193 15.0259 5.05653 15.5 6.25 15.5H14.5C14.6989 15.5 14.8897 15.579 15.0303 15.7197C15.171 15.8603 15.25 16.0511 15.25 16.25C15.25 16.4489 15.171 16.6397 15.0303 16.7803C14.8897 16.921 14.6989 17 14.5 17H6.25C4.6587 17 3.13258 16.3679 2.00736 15.2426C0.882141 14.1174 0.25 12.5913 0.25 11C0.25 9.4087 0.882141 7.88258 2.00736 6.75736C3.13258 5.63214 4.6587 5 6.25 5H17.1897L13.9694 1.78062C13.8997 1.71094 13.8444 1.62822 13.8067 1.53717C13.769 1.44613 13.7496 1.34855 13.7496 1.25C13.7496 1.15145 13.769 1.05387 13.8067 0.962827C13.8444 0.871782 13.8997 0.789057 13.9694 0.719374C14.0391 0.649692 14.1218 0.594416 14.2128 0.556704C14.3039 0.518992 14.4015 0.499582 14.5 0.499582C14.5985 0.499582 14.6961 0.518992 14.7872 0.556704C14.8782 0.594416 14.9609 0.649692 15.0306 0.719374L19.5306 5.21937C19.6004 5.28903 19.6557 5.37175 19.6934 5.46279C19.7312 5.55384 19.7506 5.65144 19.7506 5.75C19.7506 5.84856 19.7312 5.94616 19.6934 6.0372C19.6557 6.12825 19.6004 6.21097 19.5306 6.28062L15.0306 10.7806C14.8899 10.9214 14.699 11.0004 14.5 11.0004C14.301 11.0004 14.1101 10.9214 13.9694 10.7806C13.8286 10.6399 13.7496 10.449 13.7496 10.25C13.7496 10.051 13.8286 9.8601 13.9694 9.71937Z" fill="white"/>
</svg>
