<svg width="20" height="17" viewBox="0 0 20 17" fill="none" xmlns="http://www.w3.org/2000/svg">
<path d="M19.7501 11C19.7484 12.5908 19.1157 14.1159 17.9908 15.2407C16.866 16.3656 15.3409 16.9983 13.7501 17H5.5001C5.30119 17 5.11042 16.921 4.96977 16.7803C4.82912 16.6397 4.7501 16.4489 4.7501 16.25C4.7501 16.0511 4.82912 15.8603 4.96977 15.7197C5.11042 15.579 5.30119 15.5 5.5001 15.5H13.7501C14.9436 15.5 16.0882 15.0259 16.9321 14.182C17.776 13.3381 18.2501 12.1935 18.2501 11C18.2501 9.80653 17.776 8.66193 16.9321 7.81802C16.0882 6.97411 14.9436 6.5 13.7501 6.5H2.81041L6.03073 9.71937C6.17146 9.8601 6.25052 10.051 6.25052 10.25C6.25052 10.449 6.17146 10.6399 6.03073 10.7806C5.89 10.9214 5.69912 11.0004 5.5001 11.0004C5.30108 11.0004 5.11021 10.9214 4.96948 10.7806L0.469477 6.28062C0.399744 6.21097 0.344425 6.12825 0.306682 6.0372C0.268939 5.94616 0.249512 5.84856 0.249512 5.75C0.249512 5.65144 0.268939 5.55384 0.306682 5.46279C0.344425 5.37175 0.399744 5.28903 0.469477 5.21937L4.96948 0.719374C5.11021 0.578644 5.30108 0.499582 5.5001 0.499582C5.69912 0.499582 5.89 0.578644 6.03073 0.719374C6.17146 0.860105 6.25052 1.05098 6.25052 1.25C6.25052 1.44902 6.17146 1.63989 6.03073 1.78062L2.81041 5H13.7501C15.3409 5.00174 16.866 5.63444 17.9908 6.75928C19.1157 7.88412 19.7484 9.40923 19.7501 11Z" fill="white"/>
</svg>
